<svg width="219" height="40" viewBox="0 0 219 40" fill="none" xmlns="http://www.w3.org/2000/svg">
<path d="M35.8696 21.5165C35.5996 18.4858 35.1548 17.8955 34.9868 17.6735C34.6005 17.1605 33.9824 16.8253 33.3283 16.4735C33.2913 16.4539 33.2593 16.4261 33.235 16.3921C33.2106 16.358 33.1945 16.3188 33.1879 16.2775C33.1812 16.2362 33.1843 16.1939 33.1968 16.154C33.2094 16.1141 33.231 16.0776 33.26 16.0475C33.3811 15.9247 33.4742 15.7771 33.5329 15.6149C33.5916 15.4526 33.6144 15.2796 33.5998 15.1078C33.5716 14.803 33.4299 14.5199 33.2027 14.3147C32.9755 14.1095 32.6795 13.9972 32.3734 14H31.2032C31.1531 14.0003 31.103 14.0036 31.0532 14.0098C31.019 13.9949 30.9836 13.9831 30.9474 13.9745C30.2543 12.5098 29.3054 10.5042 27.3386 9.5255C24.4215 8.075 19.0477 8 17.9975 8C16.9474 8 11.5736 8.075 8.66014 9.52325C6.69335 10.502 5.74446 12.5075 5.05136 13.9723L5.04536 13.9842C5.01079 13.9891 4.97684 13.9977 4.94409 14.0098C4.89432 14.0036 4.84423 14.0003 4.79407 14H3.62165C3.31552 13.9972 3.01952 14.1095 2.79235 14.3147C2.56518 14.5199 2.42343 14.803 2.39522 15.1078C2.38189 15.2792 2.40576 15.4516 2.46518 15.613C2.5246 15.7744 2.61818 15.9211 2.73952 16.043C2.76855 16.0731 2.79018 16.1096 2.8027 16.1495C2.81522 16.1894 2.81829 16.2317 2.81167 16.273C2.80505 16.3143 2.78892 16.3535 2.76456 16.3876C2.74019 16.4216 2.70825 16.4494 2.67126 16.469C2.01716 16.823 1.39607 17.1583 1.01277 17.669C0.84474 17.894 0.400675 18.4813 0.129885 21.512C-0.020137 23.2175 -0.0426403 24.983 0.075127 26.12C0.321913 28.4825 0.784732 29.9105 0.804234 29.9698C0.875254 30.1854 1.00598 30.3764 1.18125 30.5207C1.35651 30.665 1.56912 30.7567 1.79438 30.785V30.8C1.79438 31.1183 1.92083 31.4235 2.1459 31.6485C2.37098 31.8736 2.67625 32 2.99456 32H7.19517C7.51348 32 7.81875 31.8736 8.04383 31.6485C8.2689 31.4235 8.39535 31.1183 8.39535 30.8C9.0412 30.8 9.49051 30.6845 9.96683 30.5615C10.6545 30.3762 11.3574 30.253 12.0671 30.1933C14.3557 29.975 16.6316 29.9 17.9975 29.9C19.3357 29.9 21.7121 29.975 24.0044 30.1933C24.7169 30.2531 25.4226 30.3769 26.113 30.563C26.569 30.68 27.0018 30.788 27.6012 30.7993C27.6012 31.1175 27.7276 31.4227 27.9527 31.6478C28.1778 31.8728 28.483 31.9993 28.8014 31.9993H33.002C33.3203 31.9993 33.6255 31.8728 33.8506 31.6478C34.0757 31.4227 34.2021 31.1175 34.2021 30.7993V30.7903C34.4279 30.7625 34.6412 30.6711 34.817 30.5267C34.9929 30.3824 35.1241 30.191 35.1953 29.975C35.2148 29.9158 35.6776 28.4878 35.9244 26.1253C36.0422 24.9875 36.0212 23.225 35.8696 21.5165ZM7.22068 14.9983C7.82077 13.7233 8.50712 12.2803 9.72905 11.672C11.4948 10.793 15.1546 10.397 17.9975 10.397C20.8404 10.397 24.5002 10.79 26.266 11.672C27.4879 12.2803 28.1713 13.724 28.7744 14.9983L28.8494 15.161C28.8932 15.2537 28.9126 15.356 28.9057 15.4583C28.8988 15.5605 28.8657 15.6593 28.8098 15.7452C28.7538 15.8311 28.6768 15.9012 28.586 15.9489C28.4952 15.9966 28.3938 16.0202 28.2913 16.0175C25.7987 15.95 20.5479 15.734 17.9975 15.734C15.4471 15.734 10.1964 15.9553 7.7 16.0228C7.59751 16.0254 7.49605 16.0018 7.40528 15.9541C7.31451 15.9065 7.23748 15.8364 7.18151 15.7505C7.12555 15.6646 7.09252 15.5658 7.08559 15.4635C7.07866 15.3612 7.09805 15.2589 7.14192 15.1663C7.16817 15.1108 7.19593 15.0545 7.22068 14.9983V14.9983ZM8.11556 20.9705C6.82522 21.1258 5.52663 21.2024 4.22699 21.2C3.43187 21.2 2.612 20.975 2.45973 20.267C2.35546 19.7908 2.36671 19.523 2.42297 19.2538C2.47023 19.025 2.54524 18.8585 2.9203 18.8C3.89544 18.65 4.44077 18.8383 6.037 19.3085C7.09541 19.6198 7.85902 20.0345 8.29409 20.363C8.51237 20.525 8.3961 20.948 8.11556 20.9705V20.9705ZM24.7215 27.1205C23.7344 27.233 21.7601 27.1918 18.02 27.1918C14.28 27.1918 12.3064 27.233 11.3193 27.1205C10.3006 27.0073 9.00219 26.0443 9.88882 25.1863C10.4792 24.6208 11.8564 24.1977 13.6904 23.96C15.5244 23.7222 16.3008 23.6 18.0125 23.6C19.7243 23.6 20.4219 23.675 22.3347 23.9608C24.2474 24.2465 25.6929 24.6748 26.1362 25.187C26.9448 26.105 25.7394 27.0013 24.7215 27.125V27.1205ZM33.5353 20.2662C33.3853 20.9772 32.5602 21.1992 31.768 21.1992C30.4435 21.1996 29.1201 21.1229 27.8045 20.9697C27.5749 20.948 27.4684 20.5452 27.7009 20.3622C28.1293 20.0255 28.9011 19.619 29.958 19.3078C31.5543 18.8375 32.4746 18.6493 33.2653 18.806C33.458 18.8443 33.5601 19.0513 33.5721 19.181C33.625 19.5423 33.6125 19.9101 33.5353 20.267V20.2662Z" fill="white"/>
<path d="M53.61 30.18C53.03 30.18 52.43 30.16 51.81 30.12C51.21 30.1 50.59 30.06 49.95 30C49.33 29.92 48.74 29.84 48.18 29.76C47.62 29.66 47.11 29.55 46.65 29.43V25.92C47.25 25.98 47.93 26.03 48.69 26.07C49.45 26.11 50.24 26.14 51.06 26.16C51.88 26.18 52.66 26.19 53.4 26.19C54.16 26.19 54.81 26.13 55.35 26.01C55.91 25.87 56.34 25.64 56.64 25.32C56.94 24.98 57.09 24.52 57.09 23.94V23.13C57.09 22.47 56.89 21.97 56.49 21.63C56.11 21.27 55.56 21.09 54.84 21.09H52.95C50.83 21.09 49.2 20.63 48.06 19.71C46.94 18.77 46.38 17.18 46.38 14.94V13.86C46.38 11.7 47 10.12 48.24 9.12C49.48 8.12 51.25 7.62 53.55 7.62C54.37 7.62 55.18 7.66 55.98 7.74C56.8 7.82 57.58 7.92 58.32 8.04C59.08 8.14 59.73 8.25 60.27 8.37V11.88C59.35 11.82 58.32 11.76 57.18 11.7C56.06 11.64 55.02 11.61 54.06 11.61C53.38 11.61 52.77 11.68 52.23 11.82C51.71 11.94 51.31 12.18 51.03 12.54C50.75 12.9 50.61 13.41 50.61 14.07V14.67C50.61 15.45 50.83 16.01 51.27 16.35C51.71 16.69 52.36 16.86 53.22 16.86H55.41C56.75 16.86 57.85 17.11 58.71 17.61C59.59 18.09 60.24 18.76 60.66 19.62C61.1 20.48 61.32 21.46 61.32 22.56V23.82C61.32 25.56 60.99 26.89 60.33 27.81C59.69 28.73 58.79 29.36 57.63 29.7C56.49 30.02 55.15 30.18 53.61 30.18ZM69.236 30V11.79H63.146V7.8H79.796V11.79H73.676V30H69.236ZM79.2893 30L86.2493 7.8H91.8593L98.8193 30H94.1993L92.7893 25.35H85.2293L83.8493 30H79.2893ZM86.2793 21.36H91.7393L89.0093 11.61L86.2793 21.36ZM104.392 30V11.79H98.3023V7.8H114.952V11.79H108.832V30H104.392ZM125.72 30.15C124.5 30.15 123.36 30.05 122.3 29.85C121.24 29.63 120.31 29.26 119.51 28.74C118.73 28.2 118.12 27.46 117.68 26.52C117.26 25.56 117.05 24.34 117.05 22.86V7.8H121.49V22.83C121.49 23.65 121.65 24.3 121.97 24.78C122.31 25.26 122.79 25.61 123.41 25.83C124.05 26.05 124.82 26.16 125.72 26.16C126.6 26.16 127.35 26.05 127.97 25.83C128.61 25.61 129.09 25.26 129.41 24.78C129.75 24.3 129.92 23.65 129.92 22.83V7.8H134.39V22.86C134.39 24.34 134.17 25.56 133.73 26.52C133.29 27.46 132.68 28.2 131.9 28.74C131.12 29.26 130.2 29.63 129.14 29.85C128.1 30.05 126.96 30.15 125.72 30.15ZM144.606 30.18C144.026 30.18 143.426 30.16 142.806 30.12C142.206 30.1 141.586 30.06 140.946 30C140.326 29.92 139.736 29.84 139.176 29.76C138.616 29.66 138.106 29.55 137.646 29.43V25.92C138.246 25.98 138.926 26.03 139.686 26.07C140.446 26.11 141.236 26.14 142.056 26.16C142.876 26.18 143.656 26.19 144.396 26.19C145.156 26.19 145.806 26.13 146.346 26.01C146.906 25.87 147.336 25.64 147.636 25.32C147.936 24.98 148.086 24.52 148.086 23.94V23.13C148.086 22.47 147.886 21.97 147.486 21.63C147.106 21.27 146.556 21.09 145.836 21.09H143.946C141.826 21.09 140.196 20.63 139.056 19.71C137.936 18.77 137.376 17.18 137.376 14.94V13.86C137.376 11.7 137.996 10.12 139.236 9.12C140.476 8.12 142.246 7.62 144.546 7.62C145.366 7.62 146.176 7.66 146.976 7.74C147.796 7.82 148.576 7.92 149.316 8.04C150.076 8.14 150.726 8.25 151.266 8.37V11.88C150.346 11.82 149.316 11.76 148.176 11.7C147.056 11.64 146.016 11.61 145.056 11.61C144.376 11.61 143.766 11.68 143.226 11.82C142.706 11.94 142.306 12.18 142.026 12.54C141.746 12.9 141.606 13.41 141.606 14.07V14.67C141.606 15.45 141.826 16.01 142.266 16.35C142.706 16.69 143.356 16.86 144.216 16.86H146.406C147.746 16.86 148.846 17.11 149.706 17.61C150.586 18.09 151.236 18.76 151.656 19.62C152.096 20.48 152.316 21.46 152.316 22.56V23.82C152.316 25.56 151.986 26.89 151.326 27.81C150.686 28.73 149.786 29.36 148.626 29.7C147.486 30.02 146.146 30.18 144.606 30.18ZM170.786 30.18C169.486 30.18 168.336 30.03 167.336 29.73C166.356 29.43 165.516 28.88 164.816 28.08C164.136 27.28 163.616 26.14 163.256 24.66C162.916 23.16 162.746 21.22 162.746 18.84C162.746 16.54 162.926 14.66 163.286 13.2C163.666 11.72 164.206 10.58 164.906 9.78C165.606 8.96 166.456 8.39 167.456 8.07C168.456 7.75 169.586 7.59 170.846 7.59C171.846 7.59 172.776 7.65 173.636 7.77C174.516 7.87 175.306 8 176.006 8.16C176.706 8.3 177.296 8.46 177.776 8.64V12.09C177.416 12.01 176.926 11.93 176.306 11.85C175.706 11.77 175.016 11.71 174.236 11.67C173.456 11.61 172.636 11.58 171.776 11.58C170.936 11.58 170.216 11.68 169.616 11.88C169.036 12.06 168.566 12.41 168.206 12.93C167.866 13.43 167.606 14.16 167.426 15.12C167.266 16.08 167.186 17.33 167.186 18.87C167.186 20.35 167.256 21.57 167.396 22.53C167.556 23.49 167.806 24.24 168.146 24.78C168.486 25.3 168.946 25.67 169.526 25.89C170.126 26.09 170.876 26.19 171.776 26.19C173.296 26.19 174.526 26.16 175.466 26.1C176.426 26.04 177.196 25.97 177.776 25.89V29.31C177.236 29.49 176.616 29.65 175.916 29.79C175.216 29.91 174.446 30 173.606 30.06C172.766 30.14 171.826 30.18 170.786 30.18ZM179.485 30L186.445 7.8H192.055L199.015 30H194.395L192.985 25.35H185.425L184.045 30H179.485ZM186.475 21.36H191.935L189.205 11.61L186.475 21.36ZM201.432 30V7.8H210.612C211.492 7.8 212.312 7.91 213.072 8.13C213.832 8.33 214.502 8.69 215.082 9.21C215.662 9.73 216.112 10.45 216.432 11.37C216.772 12.29 216.942 13.47 216.942 14.91C216.942 15.93 216.842 16.8 216.642 17.52C216.442 18.24 216.172 18.83 215.832 19.29C215.512 19.75 215.142 20.12 214.722 20.4C214.302 20.68 213.872 20.91 213.432 21.09L217.572 30H213.042L209.472 21.78C209.232 21.78 208.952 21.78 208.632 21.78C208.332 21.76 208.022 21.75 207.702 21.75C207.382 21.75 207.062 21.75 206.742 21.75C206.422 21.75 206.132 21.74 205.872 21.72V30H201.432ZM205.872 18.21H209.832C210.232 18.21 210.592 18.16 210.912 18.06C211.232 17.96 211.512 17.79 211.752 17.55C211.992 17.29 212.172 16.95 212.292 16.53C212.432 16.11 212.502 15.57 212.502 14.91C212.502 14.29 212.432 13.78 212.292 13.38C212.172 12.96 211.992 12.64 211.752 12.42C211.512 12.18 211.232 12.02 210.912 11.94C210.592 11.84 210.232 11.79 209.832 11.79H205.872V18.21Z" fill="white"/>
</svg>
