<svg width="36" height="24" viewBox="0 0 36 24" fill="none" xmlns="http://www.w3.org/2000/svg">
<path d="M35.8696 13.5165C35.5996 10.4858 35.1548 9.8955 34.9868 9.6735C34.6005 9.1605 33.9824 8.82525 33.3283 8.4735C33.2913 8.45394 33.2593 8.42606 33.235 8.39205C33.2106 8.35804 33.1945 8.31884 33.1879 8.27753C33.1812 8.23622 33.1843 8.19393 33.1968 8.15401C33.2094 8.11409 33.231 8.07763 33.26 8.0475C33.3811 7.92467 33.4742 7.77707 33.5329 7.61485C33.5916 7.45263 33.6144 7.27963 33.5998 7.10775C33.5716 6.80296 33.4299 6.5199 33.2027 6.31471C32.9755 6.10952 32.6795 5.99719 32.3734 6H31.2032C31.1531 6.0003 31.103 6.00355 31.0532 6.00975C31.019 5.99494 30.9836 5.98314 30.9474 5.9745C30.2543 4.50975 29.3054 2.50425 27.3386 1.5255C24.4215 0.0749997 19.0477 0 17.9975 0C16.9474 0 11.5736 0.0749999 8.66014 1.52325C6.69335 2.502 5.74446 4.5075 5.05136 5.97225L5.04536 5.98425C5.01079 5.98911 4.97684 5.99766 4.94409 6.00975C4.89432 6.00355 4.84423 6.0003 4.79407 6H3.62165C3.31552 5.99719 3.01952 6.10952 2.79235 6.31471C2.56518 6.5199 2.42343 6.80296 2.39522 7.10775C2.38189 7.27923 2.40576 7.45157 2.46518 7.61298C2.5246 7.7744 2.61818 7.92108 2.73952 8.043C2.76855 8.07313 2.79018 8.1096 2.8027 8.14951C2.81522 8.18943 2.81829 8.23172 2.81167 8.27303C2.80505 8.31434 2.78892 8.35354 2.76456 8.38755C2.74019 8.42156 2.70825 8.44944 2.67126 8.469C2.01716 8.823 1.39607 9.15825 1.01277 9.669C0.84474 9.894 0.400675 10.4813 0.129885 13.512C-0.020137 15.2175 -0.0426403 16.983 0.075127 18.12C0.321913 20.4825 0.784732 21.9105 0.804234 21.9698C0.875254 22.1854 1.00598 22.3764 1.18125 22.5207C1.35651 22.665 1.56912 22.7567 1.79438 22.785V22.8C1.79438 23.1183 1.92083 23.4235 2.1459 23.6485C2.37098 23.8736 2.67625 24 2.99456 24H7.19517C7.51348 24 7.81875 23.8736 8.04383 23.6485C8.2689 23.4235 8.39535 23.1183 8.39535 22.8C9.0412 22.8 9.49051 22.6845 9.96683 22.5615C10.6545 22.3762 11.3574 22.253 12.0671 22.1933C14.3557 21.975 16.6316 21.9 17.9975 21.9C19.3357 21.9 21.7121 21.975 24.0044 22.1933C24.7169 22.2531 25.4226 22.3769 26.113 22.563C26.569 22.68 27.0018 22.788 27.6012 22.7993C27.6012 23.1175 27.7276 23.4227 27.9527 23.6478C28.1778 23.8728 28.483 23.9993 28.8014 23.9993H33.002C33.3203 23.9993 33.6255 23.8728 33.8506 23.6478C34.0757 23.4227 34.2021 23.1175 34.2021 22.7993V22.7903C34.4279 22.7625 34.6412 22.6711 34.817 22.5267C34.9929 22.3824 35.1241 22.191 35.1953 21.975C35.2148 21.9158 35.6776 20.4878 35.9244 18.1253C36.0422 16.9875 36.0212 15.225 35.8696 13.5165ZM7.22068 6.99825C7.82077 5.72325 8.50712 4.28025 9.72905 3.672C11.4948 2.793 15.1546 2.397 17.9975 2.397C20.8404 2.397 24.5002 2.79 26.266 3.672C27.4879 4.28025 28.1713 5.724 28.7744 6.99825L28.8494 7.161C28.8932 7.25365 28.9126 7.356 28.9057 7.45827C28.8988 7.56054 28.8657 7.65934 28.8098 7.74522C28.7538 7.83111 28.6768 7.90123 28.586 7.9489C28.4952 7.99656 28.3938 8.02018 28.2913 8.0175C25.7987 7.95 20.5479 7.734 17.9975 7.734C15.4471 7.734 10.1964 7.95525 7.7 8.02275C7.59751 8.02543 7.49605 8.00181 7.40528 7.95415C7.31451 7.90648 7.23748 7.83636 7.18151 7.75047C7.12555 7.66459 7.09252 7.56579 7.08559 7.46352C7.07866 7.36125 7.09805 7.2589 7.14192 7.16625C7.16817 7.11075 7.19593 7.0545 7.22068 6.99825V6.99825ZM8.11556 12.9705C6.82522 13.1258 5.52663 13.2024 4.22699 13.2C3.43187 13.2 2.612 12.975 2.45973 12.267C2.35546 11.7908 2.36671 11.523 2.42297 11.2538C2.47023 11.025 2.54524 10.8585 2.9203 10.8C3.89544 10.65 4.44077 10.8383 6.037 11.3085C7.09541 11.6198 7.85902 12.0345 8.29409 12.363C8.51237 12.525 8.3961 12.948 8.11556 12.9705V12.9705ZM24.7215 19.1205C23.7344 19.233 21.7601 19.1918 18.02 19.1918C14.28 19.1918 12.3064 19.233 11.3193 19.1205C10.3006 19.0073 9.00219 18.0443 9.88882 17.1863C10.4792 16.6208 11.8564 16.1977 13.6904 15.96C15.5244 15.7222 16.3008 15.6 18.0125 15.6C19.7243 15.6 20.4219 15.675 22.3347 15.9608C24.2474 16.2465 25.6929 16.6748 26.1362 17.187C26.9448 18.105 25.7394 19.0013 24.7215 19.125V19.1205ZM33.5353 12.2662C33.3853 12.9772 32.5602 13.1992 31.768 13.1992C30.4435 13.1996 29.1201 13.1229 27.8045 12.9697C27.5749 12.948 27.4684 12.5452 27.7009 12.3622C28.1293 12.0255 28.9011 11.619 29.958 11.3078C31.5543 10.8375 32.4746 10.6493 33.2653 10.806C33.458 10.8443 33.5601 11.0513 33.5721 11.181C33.625 11.5423 33.6125 11.9101 33.5353 12.267V12.2662Z" fill="#DA3936"/>
</svg>
